<svg width="18" height="12" viewBox="0 0 18 12" fill="none" xmlns="http://www.w3.org/2000/svg">
<path d="M17.6231 1.88182C17.5212 1.51847 17.3227 1.18951 17.0487 0.929915C16.7669 0.662334 16.4216 0.470927 16.0453 0.37376C14.637 0.00274021 8.99475 0.0027403 8.99475 0.0027403C6.64257 -0.0240086 4.29096 0.0936398 1.9532 0.355022C1.57689 0.459367 1.23222 0.65505 0.949835 0.924668C0.672372 1.1915 0.471399 1.52055 0.366414 1.88107C0.114217 3.23904 -0.00831698 4.61788 0.000462825 5.99902C-0.00853596 7.37891 0.113698 8.75731 0.366414 10.117C0.46915 10.476 0.669373 10.8035 0.947585 11.0681C1.2258 11.3327 1.57225 11.5238 1.9532 11.625C3.38026 11.9953 8.99475 11.9953 8.99475 11.9953C11.3499 12.0221 13.7045 11.9044 16.0453 11.643C16.4216 11.5458 16.7669 11.3544 17.0487 11.0869C17.3226 10.8273 17.5209 10.4983 17.6223 10.135C17.8811 8.77751 18.007 7.39809 17.998 6.01626C18.0175 4.62857 17.8918 3.24265 17.6231 1.88107V1.88182ZM7.20099 8.56543V3.43336L11.8954 5.99977L7.20099 8.56543Z" fill="#8D8D8D"/>
</svg>
